<svg xmlns="http://www.w3.org/2000/svg" xmlns:xlink="http://www.w3.org/1999/xlink" viewBox="0 0 40 40"><defs><radialGradient id="a" cx="-34.77" cy="29.91" r="481.17" gradientUnits="userSpaceOnUse"><stop offset="0" stop-color="#ff8110"/><stop offset="0.25" stop-color="#ffd800"/><stop offset="0.49" stop-color="#5df05b"/><stop offset="0.72" stop-color="#00cbd7"/><stop offset="1" stop-color="#0080ff"/></radialGradient></defs><title>ico-insta</title><path d="M9.43,23.48v-7a1.38,1.38,0,0,0,0-.2,11.66,11.66,0,0,1,.26-2.43A5.39,5.39,0,0,1,12.94,10a7.9,7.9,0,0,1,2.92-.56l.66-.05h7a1.38,1.38,0,0,0,.2,0,11.66,11.66,0,0,1,2.43.26A5.39,5.39,0,0,1,30,12.94a7.9,7.9,0,0,1,.56,2.92c0,.22,0,.44.05.66v7a1.38,1.38,0,0,0,0,.2,11.66,11.66,0,0,1-.26,2.43A5.39,5.39,0,0,1,27.06,30a8.11,8.11,0,0,1-2.92.57c-.22,0-.44,0-.66,0h-7a1.38,1.38,0,0,0-.2,0,11,11,0,0,1-2.43-.26A5.39,5.39,0,0,1,10,27.06a8.11,8.11,0,0,1-.57-2.92C9.47,23.92,9.44,23.7,9.43,23.48ZM28.68,20h0c0-.88,0-1.76,0-2.64s-.05-1.67-.13-2.49a3.76,3.76,0,0,0-.89-2.13,3.89,3.89,0,0,0-2.82-1.29c-1.24-.07-2.49-.09-3.73-.11s-2.48,0-3.71,0c-.83,0-1.67.05-2.49.13a3.76,3.76,0,0,0-2.13.89,3.89,3.89,0,0,0-1.29,2.82c-.08,1.24-.09,2.49-.11,3.73s0,2.48,0,3.71c0,.83.05,1.67.13,2.49a3.76,3.76,0,0,0,.89,2.13,3.89,3.89,0,0,0,2.82,1.29c1.24.08,2.49.09,3.73.11s2.48,0,3.71,0a20.78,20.78,0,0,0,2.74-.18,3.46,3.46,0,0,0,3-2.66,7.06,7.06,0,0,0,.22-1.53C28.64,22.85,28.65,21.42,28.68,20Z" style="fill:url(#a)"/><path d="M25.43,20A5.43,5.43,0,1,1,20,14.57,5.42,5.42,0,0,1,25.43,20ZM20,23.52A3.52,3.52,0,1,0,16.48,20,3.53,3.53,0,0,0,20,23.52Z" style="fill:url(#a)"/><path d="M25.63,13.08a1.28,1.28,0,1,1-1.27,1.27A1.29,1.29,0,0,1,25.63,13.08Z" style="fill:url(#a)"/><path d="M20,40A20,20,0,1,1,40,20,20,20,0,0,1,20,40ZM20,1.32A18.68,18.68,0,1,0,38.68,20,18.7,18.7,0,0,0,20,1.32Z" style="fill:url(#a)"/></svg>