<svg xmlns="http://www.w3.org/2000/svg" xmlns:xlink="http://www.w3.org/1999/xlink" viewBox="0 0 40 40"><defs><radialGradient id="a" cx="-228.27" cy="29.91" r="481.17" gradientUnits="userSpaceOnUse"><stop offset="0" stop-color="#ff8110"/><stop offset="0.25" stop-color="#ffd800"/><stop offset="0.49" stop-color="#5df05b"/><stop offset="0.72" stop-color="#00cbd7"/><stop offset="1" stop-color="#0080ff"/></radialGradient></defs><title>ico-fb</title><path d="M17.91,29.83v-9h-3v-3.5h3V14.76c0-3,1.83-4.63,4.5-4.63a25.28,25.28,0,0,1,2.7.14V13.4H23.26c-1.45,0-1.74.69-1.74,1.71v2.23H25l-.45,3.5h-3v9Z" style="fill:url(#a)"/><path d="M20,40A20,20,0,1,1,40,20,20,20,0,0,1,20,40ZM20,1.32A18.68,18.68,0,1,0,38.68,20,18.7,18.7,0,0,0,20,1.32Z" style="fill:url(#a)"/></svg>