<svg xmlns="http://www.w3.org/2000/svg" xmlns:xlink="http://www.w3.org/1999/xlink" viewBox="0 0 40 40"><defs><radialGradient id="a" cx="-421.76" cy="29.91" r="481.17" gradientUnits="userSpaceOnUse"><stop offset="0" stop-color="#ff8110"/><stop offset="0.25" stop-color="#ffd800"/><stop offset="0.49" stop-color="#5df05b"/><stop offset="0.72" stop-color="#00cbd7"/><stop offset="1" stop-color="#0080ff"/></radialGradient></defs><title>ico-twitter</title><path d="M31.69,14.07a9.08,9.08,0,0,1-2.55.7,4.43,4.43,0,0,0,1.95-2.46,8.92,8.92,0,0,1-2.82,1.08,4.44,4.44,0,0,0-7.67,3,4.17,4.17,0,0,0,.12,1,12.58,12.58,0,0,1-9.14-4.63A4.44,4.44,0,0,0,13,18.72a4.4,4.4,0,0,1-2-.55v0a4.44,4.44,0,0,0,3.56,4.35,4.47,4.47,0,0,1-1.17.15,4.57,4.57,0,0,1-.83-.07,4.42,4.42,0,0,0,4.14,3.07,8.9,8.9,0,0,1-5.51,1.9,9.28,9.28,0,0,1-1.06-.06A12.62,12.62,0,0,0,29.49,16.94c0-.2,0-.39,0-.58A9,9,0,0,0,31.69,14.07Z" style="fill:url(#a)"/><path d="M20,40A20,20,0,1,1,40,20,20,20,0,0,1,20,40ZM20,1.32A18.68,18.68,0,1,0,38.68,20,18.7,18.7,0,0,0,20,1.32Z" style="fill:url(#a)"/></svg>